<svg width="24" height="24" viewBox="0 0 24 24" fill="none" xmlns="http://www.w3.org/2000/svg">
<rect width="24" height="24" rx="12" fill="white"/>
<path d="M10.1214 4C9.84342 4.00001 9.57087 4.07725 9.3342 4.2231C9.09753 4.36896 8.90605 4.57768 8.78113 4.826L8.19099 6H6.50059C5.83739 6 5.20136 6.26339 4.73241 6.73223C4.26345 7.20107 4 7.83696 4 8.5V16.5C4 17.163 4.26345 17.7989 4.73241 18.2678C5.20136 18.7366 5.83739 19 6.50059 19H11.5978C11.4342 18.6804 11.3025 18.3454 11.2047 18H6.50159C6.10367 18 5.72205 17.842 5.44068 17.5607C5.15931 17.2794 5.00124 16.8978 5.00124 16.5V8.5C5.00124 8.10218 5.15931 7.72064 5.44068 7.43934C5.72205 7.15804 6.10367 7 6.50159 7H8.50006C8.59269 6.99981 8.68345 6.97391 8.76222 6.92517C8.84098 6.87644 8.90467 6.8068 8.94616 6.724L9.67434 5.275C9.71605 5.19224 9.77995 5.1227 9.8589 5.07414C9.93785 5.02558 10.0287 4.99991 10.1214 5H13.8863C13.9793 4.99982 14.0705 5.02555 14.1496 5.0743C14.2288 5.12305 14.2928 5.1929 14.3344 5.276L15.0576 6.723C15.0992 6.80595 15.163 6.87569 15.242 6.92444C15.3209 6.97318 15.4119 6.999 15.5047 6.999H17.5042C17.9021 6.999 18.2837 7.15704 18.5651 7.43834C18.8465 7.71964 19.0045 8.10118 19.0045 8.499V11.602C19.361 11.7845 19.6964 12.0055 20.0048 12.261V8.499C20.0048 7.83596 19.7413 7.20007 19.2724 6.73123C18.8034 6.26239 18.1674 5.999 17.5042 5.999H15.8138L15.2286 4.829C15.104 4.57982 14.9124 4.37028 14.6753 4.22385C14.4382 4.07743 14.165 3.99992 13.8863 4H10.1214ZM11.9979 8C12.891 8.00004 13.7585 8.29871 14.4623 8.84849C15.1661 9.39827 15.6658 10.1676 15.8818 11.034C15.5492 11.0712 15.2208 11.1388 14.9006 11.236C14.7662 10.7255 14.4994 10.2594 14.1273 9.88489C13.7552 9.51035 13.2908 9.24059 12.7811 9.10282C12.2713 8.96506 11.7342 8.96416 11.224 9.10023C10.7138 9.2363 10.2486 9.50452 9.87519 9.87781C9.50181 10.2511 9.23353 10.7163 9.09743 11.2263C8.96133 11.7364 8.96223 12.2734 9.10003 12.783C9.23782 13.2926 9.50765 13.7569 9.88227 14.1289C10.2569 14.501 10.7231 14.7676 11.2337 14.902C11.1366 15.2218 11.0689 15.5499 11.0317 15.882C10.0865 15.6432 9.26107 15.0679 8.71012 14.2639C8.15916 13.4599 7.9206 12.4825 8.03918 11.5151C8.15777 10.5478 8.62535 9.65695 9.3542 9.00976C10.0831 8.36258 11.0231 8.00353 11.9979 8ZM21 16.5C21 17.6935 20.5258 18.8381 19.6817 19.682C18.8376 20.5259 17.6927 21 16.4989 21C15.3052 21 14.1603 20.5259 13.3162 19.682C12.4721 18.8381 11.9979 17.6935 11.9979 16.5C11.9979 15.3065 12.4721 14.1619 13.3162 13.318C14.1603 12.4741 15.3052 12 16.4989 12C17.6927 12 18.8376 12.4741 19.6817 13.318C20.5258 14.1619 21 15.3065 21 16.5ZM16.9991 14.5C16.9991 14.3674 16.9464 14.2402 16.8526 14.1464C16.7588 14.0527 16.6316 14 16.4989 14C16.3663 14 16.2391 14.0527 16.1453 14.1464C16.0515 14.2402 15.9988 14.3674 15.9988 14.5V16H14.4985C14.3658 16 14.2386 16.0527 14.1448 16.1464C14.051 16.2402 13.9984 16.3674 13.9984 16.5C13.9984 16.6326 14.051 16.7598 14.1448 16.8536C14.2386 16.9473 14.3658 17 14.4985 17H15.9988V18.5C15.9988 18.6326 16.0515 18.7598 16.1453 18.8536C16.2391 18.9473 16.3663 19 16.4989 19C16.6316 19 16.7588 18.9473 16.8526 18.8536C16.9464 18.7598 16.9991 18.6326 16.9991 18.5V17H18.4994C18.6321 17 18.7593 16.9473 18.8531 16.8536C18.9468 16.7598 18.9995 16.6326 18.9995 16.5C18.9995 16.3674 18.9468 16.2402 18.8531 16.1464C18.7593 16.0527 18.6321 16 18.4994 16H16.9991V14.5Z" fill="#3F80FF"/>
</svg>
