<svg width="22" height="22" viewBox="0 0 22 22" fill="none" xmlns="http://www.w3.org/2000/svg">
<path d="M19.2453 10.7351L20.162 10.7066C20.1576 10.5665 20.121 10.4292 20.0552 10.3054C19.9894 10.1816 19.8961 10.0745 19.7824 9.99247C19.6687 9.91039 19.5377 9.85549 19.3994 9.83198C19.2612 9.80848 19.1194 9.817 18.985 9.8569L19.2453 10.7351ZM11.2639 2.75456L12.1439 3.0149C12.1838 2.8804 12.1923 2.73854 12.1688 2.60023C12.1452 2.46193 12.0902 2.33088 12.0081 2.21718C11.9259 2.10347 11.8187 2.01015 11.6948 1.94439C11.5708 1.87864 11.4335 1.8422 11.2933 1.8379L11.2639 2.75456ZM18.985 9.8569C18.4759 10.0077 17.9476 10.0839 17.4166 10.0833V11.9166C18.1242 11.9172 18.8282 11.8153 19.5066 11.6141L18.9841 9.8569H18.985ZM17.4166 10.0833C15.9579 10.0833 14.5589 9.50385 13.5275 8.4724C12.496 7.44095 11.9166 6.042 11.9166 4.58331H10.0833C10.0833 6.52823 10.8559 8.3935 12.2311 9.76876C13.6064 11.144 15.4717 11.9166 17.4166 11.9166V10.0833ZM11.9166 4.58331C11.9166 4.03698 11.9963 3.51081 12.143 3.01581L10.3858 2.49331C10.1846 3.17174 10.0827 3.8757 10.0833 4.58331H11.9166ZM10.9999 3.66665C11.0788 3.66665 11.1576 3.66756 11.2355 3.67031L11.2933 1.8379C11.1955 1.83483 11.0977 1.83331 10.9999 1.83331V3.66665ZM3.66659 11C3.66659 9.05506 4.4392 7.1898 5.81447 5.81453C7.18974 4.43926 9.055 3.66665 10.9999 3.66665V1.83331C5.93717 1.83331 1.83325 5.93723 1.83325 11H3.66659ZM10.9999 18.3333C9.055 18.3333 7.18974 17.5607 5.81447 16.1854C4.4392 14.8102 3.66659 12.9449 3.66659 11H1.83325C1.83325 16.0627 5.93717 20.1666 10.9999 20.1666V18.3333ZM18.3333 11C18.3333 12.9449 17.5606 14.8102 16.1854 16.1854C14.8101 17.5607 12.9448 18.3333 10.9999 18.3333V20.1666C16.0627 20.1666 20.1666 16.0627 20.1666 11H18.3333ZM18.3296 10.7644C18.3323 10.8423 18.3333 10.9211 18.3333 11H20.1666C20.1666 10.9019 20.1648 10.8038 20.162 10.7066L18.3296 10.7644Z" fill="#001640"/>
</svg>
