<svg width="22" height="22" viewBox="0 0 22 22" fill="none" xmlns="http://www.w3.org/2000/svg">
<path d="M6.1875 1.375L5.5 2.0625V4.16212C5.95694 4.11162 6.41806 4.11162 6.875 4.16212V2.75H19.25V9.625H16.9029L15.125 11.4029V9.625H12.3379C12.3884 10.0819 12.3884 10.5431 12.3379 11H13.75V13.0625L14.9242 13.5492L17.4721 11H19.9375L20.625 10.3125V2.0625L19.9375 1.375H6.1875Z" fill="#001640"/>
<path fill-rule="evenodd" clip-rule="evenodd" d="M8.82337 14.3399C9.69043 13.7723 10.3511 12.9399 10.7071 11.9667C11.0631 10.9934 11.0955 9.93123 10.7993 8.93812C10.5031 7.94502 9.89433 7.07404 9.0634 6.45474C8.23247 5.83544 7.22383 5.50092 6.1875 5.50092C5.15117 5.50092 4.14253 5.83544 3.3116 6.45474C2.48067 7.07404 1.87185 7.94502 1.5757 8.93812C1.27954 9.93123 1.31187 10.9934 1.66789 11.9667C2.0239 12.9399 2.68457 13.7723 3.55163 14.3399C2.48973 14.8401 1.59198 15.6319 0.963124 16.623C0.334265 17.6142 0.000231752 18.7637 0 19.9375L0 20.625H1.375V19.9375C1.4172 18.6893 1.94272 17.5063 2.84063 16.6383C3.73854 15.7702 4.93859 15.285 6.1875 15.285C7.43641 15.285 8.63646 15.7702 9.53437 16.6383C10.4323 17.5063 10.9578 18.6893 11 19.9375V20.625H12.375V19.9375C12.3748 18.7637 12.0407 17.6142 11.4119 16.623C10.783 15.6319 9.88527 14.8401 8.82337 14.3399ZM6.1875 13.75C5.27582 13.75 4.40148 13.3878 3.75682 12.7432C3.11216 12.0985 2.75 11.2242 2.75 10.3125C2.75 9.40081 3.11216 8.52647 3.75682 7.88181C4.40148 7.23716 5.27582 6.87499 6.1875 6.87499C7.09918 6.87499 7.97352 7.23716 8.61818 7.88181C9.26284 8.52647 9.625 9.40081 9.625 10.3125C9.625 11.2242 9.26284 12.0985 8.61818 12.7432C7.97352 13.3878 7.09918 13.75 6.1875 13.75Z" fill="#001640"/>
</svg>
