<svg width="26" height="26" viewBox="0 0 26 26" fill="none" xmlns="http://www.w3.org/2000/svg">
<rect x="1" y="1" width="24" height="24" rx="8" fill="white"/>
<rect x="0.5" y="0.5" width="25" height="25" rx="8.5" stroke="#B2CCFF" stroke-opacity="0.7"/>
<path fill-rule="evenodd" clip-rule="evenodd" d="M11.8584 6.093H21.026C21.5639 6.093 22 6.56155 22 7.13951C22 7.71748 21.5639 8.18601 21.026 8.18601H11.8584C11.4563 9.40405 10.3737 10.279 9.1039 10.279C7.83412 10.279 6.75143 9.40405 6.34935 8.18601H4.97403C4.43609 8.18601 4 7.71748 4 7.13951C4 6.56155 4.43609 6.093 4.97403 6.093H6.34935C6.75146 4.87496 7.83412 4 9.1039 4C10.3737 4 11.4563 4.87496 11.8584 6.093ZM8.13086 7.13996C8.13086 7.717 8.56781 8.18647 9.10488 8.18647C9.64196 8.18647 10.0789 7.717 10.0789 7.13996C10.0789 6.56292 9.64196 6.09346 9.10488 6.09346C8.56781 6.09346 8.13086 6.56292 8.13086 7.13996ZM11.8584 17.8139H21.026C21.5639 17.8139 22 18.2825 22 18.8605C22 19.4385 21.5639 19.907 21.026 19.907H11.8584C11.4563 21.125 10.3737 22 9.1039 22C7.83412 22 6.75143 21.125 6.34935 19.907H4.97403C4.43609 19.907 4 19.4385 4 18.8605C4 18.2825 4.43609 17.8139 4.97403 17.8139H6.34935C6.75146 16.596 7.83412 15.721 9.1039 15.721C10.3737 15.721 11.4564 16.596 11.8584 17.8139ZM8.13086 18.8607C8.13086 19.4377 8.56781 19.9072 9.10488 19.9072C9.64196 19.9072 10.0789 19.4377 10.0789 18.8607C10.0789 18.2836 9.64196 17.8142 9.10488 17.8142C8.56781 17.8142 8.13086 18.2836 8.13086 18.8607ZM21.026 11.9536H19.6507C19.2485 10.7355 18.1659 9.86056 16.8961 9.86056C15.6263 9.86056 14.5437 10.7355 14.1416 11.9536H4.97403C4.43609 11.9536 4 12.4221 4 13.0001C4 13.578 4.43609 14.0466 4.97403 14.0466H14.1416C14.5436 15.2646 15.6263 16.1396 16.8961 16.1396C18.1659 16.1396 19.2485 15.2646 19.6507 14.0466H21.026C21.5639 14.0466 22 13.578 22 13.0001C22 12.4221 21.5639 11.9536 21.026 11.9536ZM16.897 14.0468C16.36 14.0468 15.923 13.5773 15.923 13.0003C15.923 12.4232 16.36 11.9538 16.897 11.9538C17.4341 11.9538 17.871 12.4232 17.871 13.0003C17.871 13.5773 17.4341 14.0468 16.897 14.0468Z" fill="#3F80FF"/>
</svg>
