<svg width="24" height="24" viewBox="0 0 24 24" fill="none" xmlns="http://www.w3.org/2000/svg">
<rect width="24" height="24" rx="12" fill="white"/>
<path d="M20 10.5219C20 15.6273 12.5864 19.7597 12.2707 19.9304C12.1875 19.9761 12.0945 20 12 20C11.9055 20 11.8125 19.9761 11.7293 19.9304C11.4136 19.7597 4 15.6273 4 10.5219C4.00132 9.32303 4.46833 8.17365 5.29856 7.32593C6.12879 6.4782 7.25445 6.00135 8.42857 6C9.90357 6 11.195 6.64765 12 7.74239C12.805 6.64765 14.0964 6 15.5714 6C16.7456 6.00135 17.8712 6.4782 18.7014 7.32593C19.5317 8.17365 19.9987 9.32303 20 10.5219Z" fill="#001640"/>
</svg>
