<svg width="24" height="24" viewBox="0 0 24 24" fill="none" xmlns="http://www.w3.org/2000/svg">
<rect width="24" height="24" rx="12" fill="white"/>
<path d="M15.6 5C18.0304 5 20 7.02703 20 9.86486C20 15.5405 14 18.7838 12 20C10 18.7838 4 15.5405 4 9.86486C4 7.02703 6 5 8.4 5C9.888 5 11.2 5.81081 12 6.62162C12.8 5.81081 14.112 5 15.6 5ZM12.7472 17.6519C13.4171 17.2287 14.0635 16.7683 14.6832 16.2727C17.068 14.3511 18.4 12.2511 18.4 9.86486C18.4 7.95135 17.1704 6.62162 15.6 6.62162C14.7392 6.62162 13.808 7.08378 13.1312 7.76811L12 8.91459L10.8688 7.76811C10.192 7.08378 9.2608 6.62162 8.4 6.62162C6.848 6.62162 5.6 7.96514 5.6 9.86486C5.6 12.2519 6.9328 14.3511 9.316 16.2727C9.912 16.7535 10.548 17.2019 11.2528 17.6511C11.492 17.8043 11.7288 17.9511 12 18.1149C12.2712 17.9511 12.508 17.8043 12.7472 17.6519Z" fill="#001640"/>
</svg>
