<svg width="15" height="15" viewBox="0 0 15 15" fill="none" xmlns="http://www.w3.org/2000/svg">
<path d="M12.375 0H2.25C1.65346 0.000651394 1.08154 0.237914 0.659729 0.659729C0.237914 1.08154 0.000651394 1.65346 0 2.25V12.375C0.000651394 12.9715 0.237914 13.5435 0.659729 13.9653C1.08154 14.3871 1.65346 14.6243 2.25 14.625H12.375C12.9715 14.6243 13.5435 14.3871 13.9653 13.9653C14.3871 13.5435 14.6243 12.9715 14.625 12.375V2.25C14.6243 1.65346 14.3871 1.08154 13.9653 0.659729C13.5435 0.237914 12.9715 0.000651394 12.375 0ZM11.1182 4.86176L6.39316 10.4868C6.34133 10.5485 6.27684 10.5984 6.20405 10.633C6.13127 10.6676 6.05189 10.6862 5.97129 10.6875H5.9618C5.88295 10.6875 5.805 10.6709 5.73299 10.6388C5.66097 10.6067 5.59652 10.5598 5.54379 10.5012L3.51879 8.25117C3.46736 8.19663 3.42736 8.13235 3.40112 8.06212C3.37489 7.99189 3.36296 7.91713 3.36604 7.84223C3.36911 7.76732 3.38713 7.69379 3.41903 7.62595C3.45093 7.5581 3.49607 7.49732 3.55179 7.44718C3.60752 7.39703 3.6727 7.35852 3.74352 7.33393C3.81434 7.30933 3.88936 7.29914 3.96417 7.30396C4.03898 7.30877 4.11208 7.32849 4.17916 7.36195C4.24625 7.39542 4.30596 7.44195 4.3548 7.49883L5.94703 9.26789L10.2568 4.13824C10.3535 4.02647 10.4903 3.95724 10.6376 3.9455C10.7849 3.93376 10.9309 3.98046 11.0441 4.07551C11.1572 4.17056 11.2284 4.30632 11.2423 4.45345C11.2562 4.60057 11.2116 4.74724 11.1182 4.86176Z" fill="#3F80FF"/>
</svg>
