<svg width="22" height="22" viewBox="0 0 22 22" fill="none" xmlns="http://www.w3.org/2000/svg">
<path d="M11.0184 17.0723C10.8312 17.0723 10.6516 17.1467 10.5192 17.279C10.3869 17.4114 10.3125 17.591 10.3125 17.7782C10.3125 17.9654 10.3869 18.1449 10.5192 18.2773C10.6516 18.4097 10.8312 18.484 11.0184 18.484H16.6654C17.1023 18.484 17.5212 18.3105 17.8301 18.0016C18.139 17.6928 18.3125 17.2738 18.3125 16.837V5.54287C18.3125 5.10604 18.139 4.68711 17.8301 4.37823C17.5212 4.06934 17.1023 3.89581 16.6654 3.89581H11.0184C10.8312 3.89581 10.6516 3.97018 10.5192 4.10256C10.3869 4.23494 10.3125 4.41448 10.3125 4.6017C10.3125 4.78891 10.3869 4.96845 10.5192 5.10083C10.6516 5.23321 10.8312 5.30758 11.0184 5.30758H16.6654C16.7278 5.30758 16.7877 5.33237 16.8318 5.37649C16.8759 5.42062 16.9007 5.48047 16.9007 5.54287V16.837C16.9007 16.8994 16.8759 16.9592 16.8318 17.0034C16.7877 17.0475 16.7278 17.0723 16.6654 17.0723H11.0184Z" fill="#FE0017"/>
<path fill-rule="evenodd" clip-rule="evenodd" d="M12.8791 12.9235C13.4861 12.9235 13.9788 12.4308 13.9788 11.8238V9.8531C13.9788 9.24606 13.4861 8.7534 12.8791 8.7534H8.82072C8.81512 8.68886 8.80926 8.62434 8.80312 8.55985L8.75562 8.0707C8.73882 7.89794 8.68061 7.73178 8.58592 7.58631C8.49123 7.44083 8.36286 7.32034 8.21169 7.23504C8.06051 7.14974 7.891 7.10215 7.71752 7.09631C7.54405 7.09048 7.37172 7.12656 7.21515 7.2015C5.77721 7.89027 4.47541 8.83295 3.37236 9.98418L3.28526 10.0757C3.08857 10.2809 2.97876 10.5542 2.97876 10.8384C2.97876 11.1227 3.08857 11.396 3.28526 11.6012L3.37324 11.6918C4.47597 12.8433 5.77747 13.7862 7.21515 14.4754C7.37172 14.5503 7.54405 14.5864 7.71752 14.5806C7.891 14.5747 8.06051 14.5271 8.21169 14.4418C8.36286 14.3565 8.49123 14.236 8.58592 14.0906C8.68061 13.9451 8.73882 13.7789 8.75562 13.6062L8.80312 13.117L8.82072 12.9235H12.8791ZM8.20928 11.6038C8.04138 11.604 7.87985 11.6681 7.75758 11.7832C7.63532 11.8982 7.56152 12.0556 7.55122 12.2232C7.53451 12.4783 7.51427 12.7343 7.48964 12.9894L7.47556 13.132C6.3271 12.54 5.28242 11.7654 4.38232 10.8384C5.28237 9.91143 6.32707 9.13683 7.47556 8.54489L7.48964 8.68742C7.51427 8.94255 7.53451 9.19768 7.55122 9.45369C7.56152 9.62127 7.63532 9.77863 7.75758 9.8937C7.87985 10.0088 8.04138 10.0729 8.20928 10.073H12.6591V11.6038H8.20928Z" fill="#FE0017"/>
</svg>
