<svg width="20" height="20" viewBox="0 0 20 20" fill="none" xmlns="http://www.w3.org/2000/svg">
<path d="M18.2961 15.7895C18.7015 15.7897 19.0914 15.9459 19.3849 16.2257C19.6783 16.5055 19.8529 16.8875 19.8724 17.2925C19.8919 17.6975 19.7548 18.0945 19.4896 18.4012C19.2243 18.708 18.8512 18.9009 18.4476 18.94L18.2961 18.9473H1.45395C1.04846 18.9471 0.658584 18.791 0.365119 18.5111C0.0716542 18.2313 -0.102907 17.8493 -0.122394 17.4443C-0.141881 17.0393 -0.00479812 16.6423 0.260448 16.3356C0.525694 16.0289 0.898769 15.836 1.30237 15.7968L1.45395 15.7895H18.2961ZM18.2961 8.42103C18.7148 8.42103 19.1164 8.58739 19.4125 8.8835C19.7086 9.17961 19.875 9.58122 19.875 9.99998C19.875 10.4187 19.7086 10.8204 19.4125 11.1165C19.1164 11.4126 18.7148 11.5789 18.2961 11.5789H1.45395C1.03518 11.5789 0.633573 11.4126 0.337463 11.1165C0.041353 10.8204 -0.125 10.4187 -0.125 9.99998C-0.125 9.58122 0.041353 9.17961 0.337463 8.8835C0.633573 8.58739 1.03518 8.42103 1.45395 8.42103H18.2961ZM18.2961 1.05261C18.7148 1.05261 19.1164 1.21897 19.4125 1.51508C19.7086 1.81119 19.875 2.2128 19.875 2.63156C19.875 3.05032 19.7086 3.45193 19.4125 3.74804C19.1164 4.04415 18.7148 4.21051 18.2961 4.21051H1.45395C1.03518 4.21051 0.633573 4.04415 0.337463 3.74804C0.041353 3.45193 -0.125 3.05032 -0.125 2.63156C-0.125 2.2128 0.041353 1.81119 0.337463 1.51508C0.633573 1.21897 1.03518 1.05261 1.45395 1.05261H18.2961Z" fill="#67687E"/>
</svg>
