<svg width="14" height="14" viewBox="0 0 14 14" fill="none" xmlns="http://www.w3.org/2000/svg">
<path d="M13.9765 5.2958C13.9324 5.1619 13.8521 5.04429 13.7454 4.95723C13.6387 4.87017 13.5101 4.8174 13.3753 4.80532L9.39775 4.19771L7.61518 0.412962C7.55793 0.289192 7.46856 0.18481 7.35729 0.111773C7.24602 0.0387369 7.11735 0 6.98603 0C6.85471 0 6.72605 0.0387369 6.61478 0.111773C6.50351 0.18481 6.41413 0.289192 6.35689 0.412962L4.57432 4.19039L0.596729 4.80532C0.46735 4.82458 0.345717 4.88143 0.245632 4.96942C0.145546 5.05741 0.0710161 5.17302 0.0304993 5.30312C-0.00658871 5.43026 -0.00991692 5.56558 0.0208719 5.69455C0.0516606 5.82352 0.115404 5.94128 0.205261 6.03518L3.09233 8.96342L2.39328 13.1215C2.36833 13.2588 2.38139 13.4006 2.43094 13.5303C2.48049 13.6601 2.56445 13.7722 2.6729 13.8536C2.77861 13.9327 2.90329 13.9794 3.03295 13.9885C3.1626 13.9975 3.2921 13.9686 3.4069 13.9048L6.98603 11.9502L10.5512 13.9121C10.6493 13.9701 10.7601 14.0004 10.8727 14C11.0208 14.0005 11.1652 13.9518 11.2852 13.8609C11.3936 13.7795 11.4776 13.6674 11.5271 13.5377C11.5767 13.4079 11.5898 13.2661 11.5648 13.1288L10.8658 8.97074L13.7528 6.0425C13.8538 5.95296 13.9283 5.83526 13.9679 5.70308C14.0075 5.57091 14.0105 5.42968 13.9765 5.2958ZM9.67737 8.22404C9.59539 8.30708 9.53405 8.40987 9.49872 8.52344C9.46338 8.637 9.45512 8.7579 9.47465 8.87558L9.97796 11.9429L7.34954 10.4788C7.2484 10.4224 7.13557 10.3929 7.02099 10.3929C6.9064 10.3929 6.79357 10.4224 6.69243 10.4788L4.06401 11.9429L4.56732 8.87558C4.58685 8.7579 4.57859 8.637 4.54325 8.52344C4.50792 8.40987 4.44658 8.30708 4.3646 8.22404L2.26745 6.02786L5.21045 5.58131C5.32369 5.56481 5.43135 5.51948 5.52397 5.44928C5.6166 5.37908 5.69137 5.28617 5.74173 5.17867L6.98603 2.38952L8.30024 5.18599C8.3506 5.29349 8.42537 5.3864 8.518 5.4566C8.61062 5.5268 8.71828 5.57213 8.83152 5.58863L11.7745 6.03518L9.67737 8.22404Z" fill="#001640"/>
</svg>
