<svg width="48" height="48" viewBox="0 0 48 48" fill="none" xmlns="http://www.w3.org/2000/svg">
<g clip-path="url(#clip0_7593_1976)">
<path fill-rule="evenodd" clip-rule="evenodd" d="M48 0V48H24H0V0H48Z" fill="#D9E6FF"/>
<path fill-rule="evenodd" clip-rule="evenodd" d="M24.5 25.4C27.8278 25.4 30.8542 26.3716 33.0806 27.7394C34.1917 28.4254 35.1417 29.2304 35.8278 30.1054C36.5028 30.9678 37 31.9982 37 33.1C37 34.283 36.4292 35.2154 35.6069 35.8804C34.8292 36.5104 33.8028 36.9276 32.7125 37.2188C30.5208 37.8026 27.5958 38 24.5 38C21.4042 38 18.4792 37.804 16.2875 37.2188C15.1972 36.9276 14.1708 36.5104 13.3931 35.8804C12.5694 35.214 12 34.283 12 33.1C12 31.9982 12.4972 30.9678 13.1722 30.1054C13.8583 29.2304 14.8069 28.4254 15.9194 27.7394C18.1458 26.3716 21.1736 25.4 24.5 25.4ZM24.5 28.2C21.6903 28.2 19.1625 29.026 17.3667 30.1306C16.4681 30.6822 15.7903 31.2814 15.3528 31.8414C14.9028 32.4154 14.7778 32.8494 14.7778 33.1C14.7778 33.2708 14.8292 33.4514 15.1319 33.6964C15.4778 33.9764 16.0792 34.2662 16.9986 34.5112C18.8292 35.0012 21.4597 35.2 24.5 35.2C27.5417 35.2 30.1708 34.9998 32 34.5112C32.9208 34.2662 33.5222 33.9764 33.8681 33.6964C34.1708 33.4514 34.2222 33.2708 34.2222 33.1C34.2222 32.848 34.0972 32.4154 33.6486 31.8414C33.2097 31.2814 32.5319 30.6822 31.6333 30.1306C29.8375 29.0246 27.3097 28.2 24.5 28.2ZM24.5 10C26.3418 10 28.1081 10.7375 29.4105 12.0503C30.7128 13.363 31.4444 15.1435 31.4444 17C31.4444 18.8565 30.7128 20.637 29.4105 21.9497C28.1081 23.2625 26.3418 24 24.5 24C22.6582 24 20.8919 23.2625 19.5895 21.9497C18.2872 20.637 17.5556 18.8565 17.5556 17C17.5556 15.1435 18.2872 13.363 19.5895 12.0503C20.8919 10.7375 22.6582 10 24.5 10ZM24.5 12.8C23.9528 12.8 23.411 12.9086 22.9055 13.1197C22.4 13.3308 21.9406 13.6401 21.5537 14.0302C21.1668 14.4202 20.8599 14.8832 20.6505 15.3927C20.4411 15.9023 20.3333 16.4484 20.3333 17C20.3333 17.5516 20.4411 18.0977 20.6505 18.6073C20.8599 19.1168 21.1668 19.5798 21.5537 19.9698C21.9406 20.3599 22.4 20.6692 22.9055 20.8803C23.411 21.0914 23.9528 21.2 24.5 21.2C25.6051 21.2 26.6649 20.7575 27.4463 19.9698C28.2277 19.1822 28.6667 18.1139 28.6667 17C28.6667 15.8861 28.2277 14.8178 27.4463 14.0302C26.6649 13.2425 25.6051 12.8 24.5 12.8Z" fill="#51526C"/>
</g>
<defs>
<clipPath id="clip0_7593_1976">
<rect width="48" height="48" rx="24" fill="white"/>
</clipPath>
</defs>
</svg>
